<?xml version="1.0" encoding="utf-8"?>
<!-- Generator: Adobe Illustrator 23.0.1, SVG Export Plug-In . SVG Version: 6.00 Build 0)  -->
<svg version="1.1" id="Layer_1" xmlns="http://www.w3.org/2000/svg" xmlns:xlink="http://www.w3.org/1999/xlink" x="0px" y="0px"
	 viewBox="0 0 90.3 109.1" style="enable-background:new 0 0 90.3 109.1;" xml:space="preserve">
<style type="text/css">
	.st0{fill:#EE4C2C;}
</style>
<g>
	<path class="st0" d="M1.4,41.5c0-5.6,4-10,9.6-10c5.5,0,9.6,4.4,9.6,10c0,5.6-4.1,10-9.6,10C5.4,51.5,1.4,47.1,1.4,41.5z M1.4,74.6
		c0-5.5,4-10,9.6-10c5.5,0,9.6,4.5,9.6,10c0,5.6-4.1,10.1-9.6,10.1C5.4,84.7,1.4,80.3,1.4,74.6z"/>
	<path class="st0" d="M34.3,54.6c0-18.3,5-33.3,13.7-47.6l10.1,4.2C50.6,24.6,47.3,40,47.3,54.6c0,14.6,3.3,29.9,10.8,43.4L48,102.1
		C39.3,87.8,34.3,72.9,34.3,54.6z"/>
	<path class="st0" d="M69.7,41.5c0-5.6,4-10,9.6-10c5.5,0,9.6,4.4,9.6,10c0,5.6-4.1,10-9.6,10C73.7,51.5,69.7,47.1,69.7,41.5z
		 M69.7,74.6c0-5.5,4-10,9.6-10c5.5,0,9.6,4.5,9.6,10c0,5.6-4.1,10.1-9.6,10.1C73.7,84.7,69.7,80.3,69.7,74.6z"/>
</g>
</svg>
