<?xml version="1.0" encoding="utf-8"?>
<!-- Generator: Adobe Illustrator 23.0.1, SVG Export Plug-In . SVG Version: 6.00 Build 0)  -->
<svg version="1.1" id="Layer_1" xmlns="http://www.w3.org/2000/svg" xmlns:xlink="http://www.w3.org/1999/xlink" x="0px" y="0px"
	 viewBox="0 0 487.3 120.2" style="enable-background:new 0 0 487.3 120.2;" xml:space="preserve">
<style type="text/css">
	.st0{fill:#EE4C2C;}
	.st1{fill:#FFFFFF;}
</style>
<g>
	<path class="st0" d="M0,48.1C0,43,3.6,39,8.8,39c5.1,0,8.8,4,8.8,9.1s-3.7,9.1-8.8,9.1C3.7,57.3,0,53.3,0,48.1z M0,78.5
		c0-5.1,3.6-9.1,8.8-9.1c5.1,0,8.8,4.1,8.8,9.1c0,5.1-3.7,9.2-8.8,9.2C3.7,87.8,0,83.7,0,78.5z"/>
	<path class="st0" d="M30.2,60.1c0-16.8,4.6-30.5,12.6-43.6l9.2,3.8C45.1,32.7,42,46.8,42,60.1c0,13.4,3,27.4,9.9,39.7l-9.2,3.8
		C34.8,90.6,30.2,77,30.2,60.1z"/>
	<path class="st0" d="M62.5,48.1c0-5.1,3.6-9.1,8.8-9.1c5.1,0,8.8,4,8.8,9.1s-3.7,9.1-8.8,9.1C66.3,57.3,62.5,53.3,62.5,48.1z
		 M62.5,78.5c0-5.1,3.6-9.1,8.8-9.1c5.1,0,8.8,4.1,8.8,9.1c0,5.1-3.7,9.2-8.8,9.2C66.3,87.8,62.5,83.7,62.5,78.5z"/>
</g>
<g>
	<path class="st1" d="M115.3,84.8l4.4-5.4c4.3,4.7,10.3,7.9,16.4,7.9c7.8,0,12.4-4.1,12.4-10.4c0-6.5-4.3-8.5-9.9-11.2l-8.6-4
		c-5.5-2.5-12-7-12-16.2c0-9.7,7.9-16.8,18.7-16.8c7,0,13.3,3.2,17.5,7.9l-4,5.1c-3.6-3.6-8-6-13.5-6c-6.7,0-11.1,3.6-11.1,9.3
		c0,6.1,5.2,8.5,9.8,10.5l8.5,3.9c6.9,3.2,12.2,7.5,12.2,16.9c0,10-7.8,17.9-20.1,17.9C127.7,94.2,120.5,90.6,115.3,84.8z"/>
	<path class="st1" d="M163.9,69.7c0-15.2,9.6-24.7,19.8-24.7c11.2,0,17.5,8.6,17.5,22c0,1.7-0.2,3.4-0.3,4.5h-29.7
		c0.5,10,6.2,16.4,14.5,16.4c4.3,0,7.8-1.4,11-3.7l2.7,5.2c-3.9,2.7-8.6,4.8-14.5,4.8C173.2,94.2,163.9,85.1,163.9,69.7z
		 M194.7,65.9c0-9.5-4-14.6-10.9-14.6c-6.2,0-11.7,5.3-12.6,14.6H194.7z"/>
	<path class="st1" d="M212,46.2h6.1l0.6,6.7h0.2c4.2-4.4,8.7-7.9,14.7-7.9c9.2,0,13.4,6.4,13.4,18.4v29.7h-7.4V64.4
		c0-8.8-2.5-12.5-8.3-12.5c-4.5,0-7.6,2.4-12,7.2v34h-7.4L212,46.2L212,46.2z"/>
	<path class="st1" d="M272.2,36.6h-18v-6.7h43.4v6.7h-17.9v56.5h-7.5V36.6z"/>
	<path class="st1" d="M298.3,80.9c0-10.2,8.3-15.3,27-17.5c0-6-1.9-11.8-9.1-11.8c-5.1,0-9.7,2.5-13.2,5l-2.9-5.4
		c4-2.8,10.3-6.1,17.3-6.1c10.7,0,15.2,7.7,15.2,19.2v28.8h-6.1l-0.6-5.6h-0.2c-4.2,3.7-9.1,6.7-14.5,6.7
		C303.8,94.2,298.3,89.3,298.3,80.9z M325.3,81.7V68.6c-14.8,1.9-19.8,5.8-19.8,11.8c0,5.3,3.4,7.5,7.8,7.5
		C317.5,87.9,321,85.7,325.3,81.7z"/>
	<path class="st1" d="M346.6,46.2h6.1l0.6,8.5h0.2c3.1-6,7.5-9.7,12.4-9.7c1.9,0,3.3,0.3,4.7,1l-1.4,6.9c-1.5-0.6-2.5-0.8-4.3-0.8
		c-3.6,0-8.2,2.8-11.1,10.8v30.2h-7.4V46.2H346.6z"/>
	<path class="st1" d="M373.7,102c0-4,2.4-7.8,6.5-10.6v-0.3c-2.3-1.5-4-4-4-7.7c0-3.9,2.7-7,4.9-8.7v-0.3c-2.9-2.5-5.7-7-5.7-12.6
		c0-10.3,7.6-16.7,16.5-16.7c2.4,0,4.6,0.6,6.1,1.2h15.3v6h-9c2.1,2.2,3.6,5.6,3.6,9.7c0,10-7.1,16.3-16,16.3
		c-2.2,0-4.6-0.6-6.5-1.6c-1.6,1.5-2.8,3-2.8,5.6c0,3,1.8,5.1,7.7,5.1h8.6c10.2,0,15.3,3.5,15.3,11.1c0,8.7-8.6,16.2-22.1,16.2
		C381.1,114.6,373.7,110.1,373.7,102z M406.9,99.6c0-4.3-3.2-5.8-9-5.8h-7.6c-1.6,0-3.7-0.3-5.7-0.8c-3.2,2.4-4.5,5.2-4.5,7.9
		c0,5,4.8,8.3,12.8,8.3C401.3,109.3,406.9,104.5,406.9,99.6z M401.2,61.7c0-6.8-4.1-11-9.3-11s-9.4,4.1-9.4,11
		c0,6.8,4.3,11.1,9.4,11.1C396.9,72.9,401.2,68.6,401.2,61.7z"/>
	<path class="st1" d="M418.1,69.7c0-15.2,9.6-24.7,19.8-24.7c11.2,0,17.5,8.6,17.5,22c0,1.7-0.2,3.4-0.3,4.5h-29.6
		c0.5,10,6.2,16.4,14.5,16.4c4.3,0,7.8-1.4,11-3.7l2.7,5.2c-3.9,2.7-8.6,4.8-14.5,4.8C427.4,94.2,418.1,85.1,418.1,69.7z
		 M448.9,65.9c0-9.5-4-14.6-10.9-14.6c-6.2,0-11.7,5.3-12.6,14.6H448.9z"/>
	<path class="st1" d="M466.6,78.6v-26h-6.5v-6l6.9-0.4l0.9-13.1h6.1v13.1h11.9v6.4H474v26.1c0,5.8,1.7,9.1,6.8,9.1
		c1.5,0,3.6-0.6,5-1.2l1.5,5.9c-2.5,0.9-5.4,1.7-8.1,1.7C469.7,94.2,466.6,88,466.6,78.6z"/>
</g>
</svg>
